<svg width="390" height="390" viewBox="0 0 390 390" fill="none" xmlns="http://www.w3.org/2000/svg">
<path d="M363.69 159.51V153.14V146.75V140.37V133.99H357.3V127.61V121.22V114.85H350.92V108.47V102.09H344.55V95.71V89.33H338.16V82.95H331.78V76.57V70.18H325.4V63.81H319.02V57.43H312.64H306.26V51.04H299.88V44.67H293.5H287.12V38.28H280.73H274.36V31.91H267.98H261.59H255.22V25.53H248.84H242.46H236.08H229.69V19.14H223.32H216.94H210.55H204.18H197.79H191.41H185.04H178.65H172.28H165.89H159.51V25.52H153.14H146.75H140.37H133.99V31.9H127.61H121.22H114.85V38.28H108.47H102.09V44.66H95.71H89.33V51.04H82.95V57.43H76.57H70.18V63.8H63.81V70.18H57.43V76.56V82.94H51.04V89.33H44.67V95.7V102.08H38.28V108.47V114.84H31.91V121.22V127.61V133.98H25.53V140.37V146.74V153.13V159.51H19.14V165.88V172.27V178.65V185.02V191.41V197.79V197.8V204.17V210.56V216.93V223.31V229.7H25.52V236.07V242.46V248.84V255.21H31.9V261.6V267.98V274.36H38.28V280.74V287.11H44.66V293.5V299.88H51.04V306.25H57.43V312.64V319.02H63.8V325.4H70.18V331.78H76.56H82.94V338.17H89.33V344.54H95.7H102.08V350.92H108.47H114.84V357.3H121.22H127.61H133.98V363.68H140.37H146.74H153.13H159.51V370.07H165.88H172.27H178.65H185.02H191.41H197.79H204.17H210.55H216.92H223.31H229.69V363.69H236.07H242.45H248.84H255.21V357.31H261.59H267.98H274.35V350.92H280.73H287.11V344.55H293.49H299.88V338.17H306.25V331.78H312.63H319.02V325.41H325.39V319.02H331.78V312.65V306.27H338.16V299.88H344.53V293.51V287.13H350.92V280.74V274.37H357.29V267.98V261.6V255.22H363.68V248.84V242.47V236.08V229.7H370.06V223.33V216.94V210.56V204.18V197.8V197.79V191.41V185.04V178.65V172.28V165.89V159.51H363.69Z" fill="#FFEDCB"/>
<path d="M382.83 159.51V134H376.44V114.85H370.06V102.09H363.69V89.33H357.3V83H350.92V70.18H344.54V63.81H338.16V57.43H331.78V51H325.4V44.67H319V38.28H306.26V31.91H299.88V25.53H287.12V19.14H274.36V12.77H255.22V6.38H229.69V0H159.51V6.37H134V12.76H114.85V19.14H102.09V25.52H89.33V31.9H83V38.28H70.18V44.66H63.81V51H57.43V57.39H51V63.8H44.67V70.18H38.28V82.94H31.91V89.33H25.53V102.08H19.14V114.84H12.77V134H6.38V159.53H0V191.43V197.81V229.71H6.37V255.22H12.76V274.37H19.14V287.12H25.52V299.89H31.9V306.27H38.28V319H44.66V325.38H51V331.76H57.39V338.15H63.8V344.52H70.18V350.9H82.94V357.28H89.33V363.66H102.08V370.05H114.84V376.42H134V382.8H159.53V389.19H229.71V382.81H255.23V376.43H274.37V370.05H287.13V363.67H299.9V357.29H306.27V350.9H319V344.53H325.37V338.15H331.76V331.76H338.14V325.39H344.51V319H350.9V306.27H357.27V299.88H363.66V287.12H370.04V274.37H376.41V255.23H382.8V229.7H389.18V197.8V191.42V159.52L382.83 159.51ZM370.06 229.7H363.68V255.23H357.29V274.37H350.92V287.12H344.53V299.88H338.16V306.27H331.78V319H325.39V325.39H319V331.76H306.25V338.15H299.88V344.53H287.11V350.9H274.35V357.29H255.21V363.67H229.69V370.05H159.51V363.66H134V357.3H114.84V350.92H102.08V344.54H89.33V338.17H82.94V331.78H70.18V325.4H63.8V319H57.43V306.26H51V299.88H44.66V287.11H38.28V274.36H31.9V255.21H25.52V229.7H19.14V191.41V159.51H25.53V134H31.91V114.84H38.28V102.08H44.67V89.33H51V82.94H57.39V70.18H63.77V63.8H70.14V57.43H83V51H89.38V44.66H102.14V38.28H114.9V31.9H134V25.52H159.52V19.14H229.7V25.53H255.23V31.91H274.37V38.28H287.13V44.67H299.89V51H306.27V57.39H319V63.77H325.38V70.14H331.76V83H338.14V89.38H344.52V102.14H350.9V114.9H357.28V134H363.67V159.52H370.04V191.42V197.8V229.7H370.06Z" fill="#DDA11D"/>
<path d="M187.94 264.34H181.31V270.99H187.94H194.59V264.34V257.7H187.94V264.34Z" fill="#16385A"/>
<path d="M181.31 297.55V304.2H187.94H194.59V297.55H187.94H181.31Z" fill="#16385A"/>
<path d="M181.31 277.63V284.26H187.94H194.59V277.63H187.94H181.31Z" fill="#16385A"/>
<path d="M181.31 284.26H174.67V290.9H181.31V284.26Z" fill="#16385A"/>
<path d="M181.31 91.66H174.66H168.03V98.29V104.93H174.66H181.31H187.95H194.59V98.29V91.66H187.95H181.31Z" fill="#16385A"/>
<path d="M181.31 38.51H148.09V45.15H121.53V51.8H114.88V58.43H108.24V65.08H101.59V78.37H108.24V85H114.88V91.64H121.53V98.28H141.46V131.5H134.81V151.42H128.17V111.56H121.52V118.21H114.88V124.85H108.25V131.5H101.6V158.06H108.25V171.35H101.6V164.71H95V144.78H88.31V151.42H81.67V191.28H88.31V204.56H95V211.2H81.67V197.92H75V191.28H68.39V217.84H75V231.13H81.63V251.05H88.27V271H95V277.64H101.64V290.92H108.29V297.56H114.92V271H108.29V244.42H114.92V237.78H121.56V224.49H114.92V217.84H108.29V197.92H114.92V191.28H121.56V178H128.21V171.36H134.85V164.72H154.77V158.07H161.42V138.14H168V164.71H161.36V171.35H148.1V184.63H134.81V197.92H121.52V217.84H128.17V244.42H121.52V304.2H128.17V310.84H134.81V317.47H141.46V324.12H148.1V330.76H154.73V337.41H161.38V344.05H168V350.7H194.57V324.12H168V317.47H154.73V310.84H148.1V304.2H141.46V271H134.81V251.05H141.46V244.42H174.67V237.78H181.31V211.2H141.46V204.56H148.1V197.92H154.73V191.28H161.38V184.63H168V178H194.57V151.42H188V164.71H181.36V131.5H188V144.78H194.64V111.56H181.31V118.21H174.67V124.85H168V78.35H161.36V85H154.71V91.64H148.1V98.29V91.65H134.82V85H121.53V78.37H114.88V65.08H121.53V58.43H134.82V51.8H168V45.15H194.56V38.51H181.31ZM161.38 217.84H174.67V224.49H154.73V217.84H161.38Z" fill="#16385A"/>
<path d="M194.61 297.55V304.2H201.26H207.89V297.55H201.26H194.61Z" fill="#DDA11D"/>
<path d="M194.61 257.7V264.34V270.99H201.26H207.89V264.34H201.26V257.7H194.61Z" fill="#DDA11D"/>
<path d="M201.26 277.63H194.61V284.26H201.26H207.89V277.63H201.26Z" fill="#DDA11D"/>
<path d="M214.53 284.26H207.89V290.9H214.53V284.26Z" fill="#DDA11D"/>
<path d="M314.17 191.28V197.92H307.53V211.2H294.25V204.56H300.89V191.28H307.53V151.42H300.89V144.78H294.25V164.71H287.6V171.35H281V158.06H287.64V131.5H281V124.85H274.36V118.21H267.72V111.56H261V151.42H254.36V131.5H247.71V98.29H267.64V91.65H274.29V85H281V78.37H287.65V65.08H281V58.43H274.36V51.8H267.71V45.15H241.11V38.51H194.61V45.15H221.17V51.8H254.38V58.43H267.67V65.08H274.32V78.37H267.67V85H254.38V91.64H241.11V98.28V91.64H234.48V85H227.83V78.35H221.19V124.85H214.54V118.21H207.9V111.56H194.61V144.78H201.26V131.5H207.89V164.71H201.26V151.42H194.61V178H221.18V184.64H227.82V191.29H234.47V197.93H241.1V204.57H247.74V211.21H207.89V237.79H214.53V244.43H247.74V251.06H254.39V271H247.74V304.2H241.1V310.84H234.47V317.47H221.18V324.12H194.61V350.7H221.18V344.05H227.82V337.41H234.47V330.76H241.1V324.12H247.74V317.47H254.39V310.84H261V304.2H267.65V244.42H261V217.84H267.65V197.92H254.39V184.63H241.1V171.35H227.82V164.71H221.18V138.14H227.82V158.06H234.47V164.71H254.39V171.35H261V178H267.65V191.29H274.29V197.93H281V217.85H274.36V224.5H267.72V237.79H274.36V244.43H281V271H274.36V297.56H281V290.92H287.64V277.63H294.29V271H300.93V251.05H307.57V231.13H314.21V217.84H320.85V191.28H314.17ZM214.53 217.84H234.47V224.49H214.53V217.84Z" fill="#DDA11D"/>
<path d="M207.9 104.93H214.54H221.17V98.29V91.66H214.54H207.9H201.25H194.61V98.29V104.93H201.25H207.9Z" fill="#DDA11D"/>
</svg>